HIERARCHY
ROOT Hips
{
	OFFSET 0.747674 87.668175 4.689383
	CHANNELS 6 Xposition Yposition Zposition Zrotation Yrotation Xrotation 
	JOINT Spine
	{
		OFFSET -0.000000 8.814246 -2.080107
		CHANNELS 3 Zrotation Yrotation Xrotation
		JOINT Spine1
		{
			OFFSET 0.000000 8.844141 0.000000
			CHANNELS 3 Zrotation Yrotation Xrotation
			JOINT Spine2
			{
				OFFSET -0.000000 11.682268 -0.000000
				CHANNELS 3 Zrotation Yrotation Xrotation
				JOINT Spine3
				{
					OFFSET -0.000000 11.746700 -0.000000
					CHANNELS 3 Zrotation Yrotation Xrotation
					JOINT Neck
					{
						OFFSET -0.000000 17.658264 -0.000000
						CHANNELS 3 Zrotation Yrotation Xrotation
						JOINT Neck1
						{
							OFFSET 0.000000 5.101515 -0.000000
							CHANNELS 3 Zrotation Yrotation Xrotation
							JOINT Head
							{
								OFFSET -0.000000 5.101515 -0.000000
								CHANNELS 3 Zrotation Yrotation Xrotation
								JOINT HeadEnd
								{
									OFFSET 0.000000 11.655085 -0.000000
									CHANNELS 3 Zrotation Yrotation Xrotation
									End Site
									{
										OFFSET 0.000000 0.000000 0.000000
									}
								}
							}
						}
					}
					JOINT RightShoulder
					{
						OFFSET -2.625389 11.175210 -0.000000
						CHANNELS 3 Zrotation Yrotation Xrotation
						JOINT RightArm
						{
							OFFSET -0.000000 10.434715 -0.000000
							CHANNELS 3 Zrotation Yrotation Xrotation
							JOINT RightForeArm
							{
								OFFSET 0.000000 29.628420 0.000000
								CHANNELS 3 Zrotation Yrotation Xrotation
								JOINT RightHand
								{
									OFFSET -0.000000 22.857611 0.000000
									CHANNELS 3 Zrotation Yrotation Xrotation
									JOINT RightHandThumb1
									{
										OFFSET -2.867323 3.959563 2.944291
										CHANNELS 3 Zrotation Yrotation Xrotation
										JOINT RightHandThumb2
										{
											OFFSET 0.000000 3.350399 -0.000000
											CHANNELS 3 Zrotation Yrotation Xrotation
											JOINT RightHandThumb3
											{
												OFFSET 0.000000 3.756509 -0.000000
												CHANNELS 3 Zrotation Yrotation Xrotation
												JOINT RightHandThumb4
												{
													OFFSET -0.000000 3.147345 0.000000
													CHANNELS 3 Zrotation Yrotation Xrotation
													End Site
													{
														OFFSET 0.000000 0.000000 0.000000
													}
												}
											}
										}
									}
									JOINT RightHandIndex1
									{
										OFFSET -0.086752 10.030893 2.345280
										CHANNELS 3 Zrotation Yrotation Xrotation
										JOINT RightHandIndex2
										{
											OFFSET -0.000000 4.061090 0.000000
											CHANNELS 3 Zrotation Yrotation Xrotation
											JOINT RightHandIndex3
											{
												OFFSET 0.000000 3.248873 -0.000000
												CHANNELS 3 Zrotation Yrotation Xrotation
												JOINT RightHandIndex4
												{
													OFFSET -0.000000 2.639709 0.000000
													CHANNELS 3 Zrotation Yrotation Xrotation
													End Site
													{
														OFFSET 0.000000 0.000000 0.000000
													}
												}
											}
										}
									}
									JOINT RightHandMiddle1
									{
										OFFSET 0.104102 9.502952 0.006768
										CHANNELS 3 Zrotation Yrotation Xrotation
										JOINT RightHandMiddle2
										{
											OFFSET 0.000000 4.568727 -0.000000
											CHANNELS 3 Zrotation Yrotation Xrotation
											JOINT RightHandMiddle3
											{
												OFFSET -0.000000 3.654981 0.000000
												CHANNELS 3 Zrotation Yrotation Xrotation
												JOINT RightHandMiddle4
												{
													OFFSET 0.000000 2.741236 -0.000000
													CHANNELS 3 Zrotation Yrotation Xrotation
													End Site
													{
														OFFSET 0.000000 0.000000 0.000000
													}
												}
											}
										}
									}
									JOINT RightHandRing1
									{
										OFFSET 0.086752 8.921708 -2.267442
										CHANNELS 3 Zrotation Yrotation Xrotation
										JOINT RightHandRing2
										{
											OFFSET -0.000000 4.061090 -0.000000
											CHANNELS 3 Zrotation Yrotation Xrotation
											JOINT RightHandRing3
											{
												OFFSET 0.000000 3.654981 -0.000000
												CHANNELS 3 Zrotation Yrotation Xrotation
												JOINT RightHandRing4
												{
													OFFSET -0.000000 2.741236 0.000000
													CHANNELS 3 Zrotation Yrotation Xrotation
													End Site
													{
														OFFSET 0.000000 0.000000 0.000000
													}
												}
											}
										}
									}
									JOINT RightHandPinky1
									{
										OFFSET -0.173504 7.976997 -4.467199
										CHANNELS 3 Zrotation Yrotation Xrotation
										JOINT RightHandPinky2
										{
											OFFSET 0.000000 3.350399 0.000000
											CHANNELS 3 Zrotation Yrotation Xrotation
											JOINT RightHandPinky3
											{
												OFFSET 0.000000 2.842763 -0.000000
												CHANNELS 3 Zrotation Yrotation Xrotation
												JOINT RightHandPinky4
												{
													OFFSET 0.000000 2.639709 0.000000
													CHANNELS 3 Zrotation Yrotation Xrotation
													End Site
													{
														OFFSET 0.000000 0.000000 0.000000
													}
												}
											}
										}
									}
									JOINT RightForeArmEnd
									{
										OFFSET 0.000000 0.000000 0.000000
										CHANNELS 3 Zrotation Yrotation Xrotation
										End Site
										{
											OFFSET 0.000000 0.000000 0.000000
										}
									}
								}
								JOINT RightArmEnd
								{
									OFFSET 0.000000 0.000000 0.000000
									CHANNELS 3 Zrotation Yrotation Xrotation
									End Site
									{
										OFFSET 0.000000 0.000000 0.000000
									}
								}
							}
						}
					}
					JOINT LeftShoulder
					{
						OFFSET 2.625389 11.175210 -0.000000
						CHANNELS 3 Zrotation Yrotation Xrotation
						JOINT LeftArm
						{
							OFFSET 0.000000 10.813635 -0.000000
							CHANNELS 3 Zrotation Yrotation Xrotation
							JOINT LeftForeArm
							{
								OFFSET 0.000000 28.724781 0.000000
								CHANNELS 3 Zrotation Yrotation Xrotation
								JOINT LeftHand
								{
									OFFSET 0.644384 25.716167 -0.328871
									CHANNELS 3 Zrotation Yrotation Xrotation
									JOINT LeftHandThumb1
									{
										OFFSET 2.867323 3.959563 2.944291
										CHANNELS 3 Zrotation Yrotation Xrotation
										JOINT LeftHandThumb2
										{
											OFFSET 0.000000 3.350399 -0.000000
											CHANNELS 3 Zrotation Yrotation Xrotation
											JOINT LeftHandThumb3
											{
												OFFSET 0.000000 3.756509 -0.000000
												CHANNELS 3 Zrotation Yrotation Xrotation
												JOINT LeftHandThumb4
												{
													OFFSET -0.000000 3.100000 -0.000000
													CHANNELS 3 Zrotation Yrotation Xrotation
													End Site
													{
														OFFSET 0.000000 0.000000 0.000000
													}
												}
											}
										}
									}
									JOINT LeftHandIndex1
									{
										OFFSET 0.086752 10.030893 2.345280
										CHANNELS 3 Zrotation Yrotation Xrotation
										JOINT LeftHandIndex2
										{
											OFFSET 0.000000 4.061090 0.000000
											CHANNELS 3 Zrotation Yrotation Xrotation
											JOINT LeftHandIndex3
											{
												OFFSET -0.000000 3.248873 0.000000
												CHANNELS 3 Zrotation Yrotation Xrotation
												JOINT LeftHandIndex4
												{
													OFFSET 0.000000 2.639709 0.000000
													CHANNELS 3 Zrotation Yrotation Xrotation
													End Site
													{
														OFFSET 0.000000 0.000000 0.000000
													}
												}
											}
										}
									}
									JOINT LeftHandMiddle1
									{
										OFFSET -0.104102 9.502952 0.006768
										CHANNELS 3 Zrotation Yrotation Xrotation
										JOINT LeftHandMiddle2
										{
											OFFSET 0.000000 4.568727 0.000000
											CHANNELS 3 Zrotation Yrotation Xrotation
											JOINT LeftHandMiddle3
											{
												OFFSET 0.000000 3.654981 0.000000
												CHANNELS 3 Zrotation Yrotation Xrotation
												JOINT LeftHandMiddle4
												{
													OFFSET 0.000000 2.741236 0.000000
													CHANNELS 3 Zrotation Yrotation Xrotation
													End Site
													{
														OFFSET 0.000000 0.000000 0.000000
													}
												}
											}
										}
									}
									JOINT LeftHandRing1
									{
										OFFSET -0.086752 8.921708 -2.267442
										CHANNELS 3 Zrotation Yrotation Xrotation
										JOINT LeftHandRing2
										{
											OFFSET -0.000000 4.061090 -0.000000
											CHANNELS 3 Zrotation Yrotation Xrotation
											JOINT LeftHandRing3
											{
												OFFSET 0.000000 3.654981 0.000000
												CHANNELS 3 Zrotation Yrotation Xrotation
												JOINT LeftHandRing4
												{
													OFFSET 0.000000 2.741236 0.000000
													CHANNELS 3 Zrotation Yrotation Xrotation
													End Site
													{
														OFFSET 0.000000 0.000000 0.000000
													}
												}
											}
										}
									}
									JOINT LeftHandPinky1
									{
										OFFSET 0.173504 7.976997 -4.467199
										CHANNELS 3 Zrotation Yrotation Xrotation
										JOINT LeftHandPinky2
										{
											OFFSET -0.000000 3.350399 -0.000000
											CHANNELS 3 Zrotation Yrotation Xrotation
											JOINT LeftHandPinky3
											{
												OFFSET 0.000000 2.842763 0.000000
												CHANNELS 3 Zrotation Yrotation Xrotation
												JOINT LeftHandPinky4
												{
													OFFSET -0.000000 2.639709 0.000000
													CHANNELS 3 Zrotation Yrotation Xrotation
													End Site
													{
														OFFSET 0.000000 0.000000 0.000000
													}
												}
											}
										}
									}
									JOINT LeftForeArmEnd
									{
										OFFSET 0.000000 0.000000 0.000000
										CHANNELS 3 Zrotation Yrotation Xrotation
										End Site
										{
											OFFSET 0.000000 0.000000 0.000000
										}
									}
								}
								JOINT LeftArmEnd
								{
									OFFSET 0.000000 0.000000 0.000000
									CHANNELS 3 Zrotation Yrotation Xrotation
									End Site
									{
										OFFSET 0.000000 0.000000 0.000000
									}
								}
							}
						}
					}
				}
			}
		}
	}
	JOINT RightUpLeg
	{
		OFFSET -11.289943 0.000000 0.000000
		CHANNELS 3 Zrotation Yrotation Xrotation
		JOINT RightLeg
		{
			OFFSET -0.000000 -38.200325 -0.000000
			CHANNELS 3 Zrotation Yrotation Xrotation
			JOINT RightFoot
			{
				OFFSET -0.000000 -39.900856 -0.000000
				CHANNELS 3 Zrotation Yrotation Xrotation
				JOINT RightToeBase
				{
					OFFSET -0.000000 -0.000000 15.261641
					CHANNELS 3 Zrotation Yrotation Xrotation
					JOINT RightToeBaseEnd
					{
						OFFSET 0.000000 0.000000 7.370709
						CHANNELS 3 Zrotation Yrotation Xrotation
						End Site
						{
							OFFSET 0.000000 0.000000 0.000000
						}
					}
				}
				JOINT RightLegEnd
				{
					OFFSET 0.000000 0.000000 0.000000
					CHANNELS 3 Zrotation Yrotation Xrotation
					End Site
					{
						OFFSET 0.000000 0.000000 0.000000
					}
				}
			}
			JOINT RightUpLegEnd
			{
				OFFSET 0.000000 0.000000 0.000000
				CHANNELS 3 Zrotation Yrotation Xrotation
				End Site
				{
					OFFSET 0.000000 0.000000 0.000000
				}
			}
		}
	}
	JOINT LeftUpLeg
	{
		OFFSET 11.315661 -0.000000 0.000000
		CHANNELS 3 Zrotation Yrotation Xrotation
		JOINT LeftLeg
		{
			OFFSET -0.000000 -38.200325 -0.000000
			CHANNELS 3 Zrotation Yrotation Xrotation
			JOINT LeftFoot
			{
				OFFSET -0.000000 -39.900856 -0.000000
				CHANNELS 3 Zrotation Yrotation Xrotation
				JOINT LeftToeBase
				{
					OFFSET -0.000000 -0.000000 15.261641
					CHANNELS 3 Zrotation Yrotation Xrotation
					JOINT LeftToeBaseEnd
					{
						OFFSET -0.000000 0.000000 7.539996
						CHANNELS 3 Zrotation Yrotation Xrotation
						End Site
						{
							OFFSET 0.000000 0.000000 0.000000
						}
					}
				}
				JOINT LeftLegEnd
				{
					OFFSET 0.000000 0.000000 0.000000
					CHANNELS 3 Zrotation Yrotation Xrotation
					End Site
					{
						OFFSET 0.000000 0.000000 0.000000
					}
				}
			}
			JOINT LeftUpLegEnd
			{
				OFFSET 0.000000 0.000000 0.000000
				CHANNELS 3 Zrotation Yrotation Xrotation
				End Site
				{
					OFFSET 0.000000 0.000000 0.000000
				}
			}
		}
	}
}
MOTION
Frames: 4
Frame Time: 0.016667
0.747674 87.668175 4.689383 -3.535343 -0.767392 -12.231372 6.095854 -0.951148 7.781878 1.798175 -0.424543 3.974984 -2.099292 0.842808 4.986308 -3.521839 0.298552 1.696786 0.206504 2.261291 2.316547 -0.188862 2.554806 -4.337657 -2.114116 -1.173474 -16.669874 0.000000 0.000000 0.000000 88.671638 0.287262 12.355632 66.634537 -38.728077 3.183556 -0.220670 13.955481 27.597895 15.789344 19.152102 -0.316235 12.735312 -1.985468 38.960354 0.000000 0.000000 -30.959999 0.000000 0.000000 -21.500000 0.000000 0.000000 0.000000 22.727873 -0.000000 -5.163330 15.909513 0.000000 0.000000 15.909513 0.000000 0.000000 0.000000 0.000000 0.000000 21.063457 -0.000000 -6.397734 14.744424 0.000000 0.000000 14.744424 0.000000 0.000000 0.000000 0.000000 0.000000 21.189095 0.000000 -6.384987 14.832365 0.000000 0.000000 14.832365 0.000000 0.000000 0.000000 0.000000 0.000000 20.252562 -0.000000 -8.083338 14.176792 0.000000 0.000000 14.176792 0.000000 0.000000 0.000000 0.000000 0.000000 0.000000 0.000000 0.000000 0.000000 0.000000 0.000000 -92.431412 0.258364 5.714468 -62.414082 24.434937 -2.329807 -0.742009 -13.526134 46.735458 -18.439726 -7.467391 -8.707836 -12.435399 1.968813 39.088257 0.000000 0.000000 -30.239998 0.000000 0.000000 -21.000002 0.000000 0.000000 0.000000 -22.599844 0.000000 -2.198545 -15.819892 0.000000 0.000000 -15.819892 0.000000 0.000000 0.000000 0.000000 0.000000 -20.185705 0.000000 -5.449983 -14.129996 0.000000 0.000000 -14.129996 0.000000 0.000000 0.000000 0.000000 0.000000 -18.178360 0.000000 -9.208035 -12.724854 0.000000 0.000000 -12.724854 0.000000 0.000000 0.000000 0.000000 0.000000 -14.821902 -0.000000 -13.086105 -10.375329 0.000000 0.000000 -10.375329 0.000000 0.000000 0.000000 0.000000 0.000000 0.000000 0.000000 0.000000 0.000000 0.000000 0.000000 2.811999 -4.259918 11.380241 -0.123847 -0.747486 9.407968 0.010983 -13.735901 15.781436 -0.949615 0.951092 -20.430891 0.000000 0.000000 0.000000 0.000000 0.000000 0.000000 0.000000 0.000000 0.000000 9.207635 -5.313196 -2.125881 0.763586 1.418015 28.305725 -6.144506 1.460953 13.182067 0.818049 -1.779821 -21.741783 0.000000 0.000000 0.000000 0.000000 0.000000 0.000000 0.000000 0.000000 0.000000 
-0.083287 87.527039 4.332363 -2.866712 0.215940 -12.343301 3.867913 -0.589258 7.086036 2.577214 -0.658545 4.557806 -1.572861 0.885699 4.401309 -1.889695 0.325233 4.216577 0.490960 4.846324 3.032300 -0.724758 4.240582 -4.591436 -1.655245 -0.283373 -18.510565 0.000000 0.000000 0.000000 90.515739 -0.256954 10.963710 62.822895 -37.160183 5.134863 -0.289660 15.996625 33.330437 12.776667 20.575041 -1.526047 12.475049 -1.978656 39.082195 0.000011 0.000028 -30.368191 0.000005 0.000049 -20.891550 0.000018 0.000001 -0.000039 23.361443 -0.135981 -5.526867 15.617423 -0.058439 0.088389 15.579226 -0.030963 0.055564 -0.000010 0.000062 -0.000052 21.106056 -0.040254 -6.711781 14.706710 -0.016577 0.013393 14.849467 -0.008683 0.018181 0.000013 0.000017 -0.000004 21.157776 0.043317 -7.186848 14.872229 0.036389 -0.054851 14.795300 0.014262 -0.030227 -0.000030 0.000395 0.000015 19.995209 0.131159 -8.998163 14.269284 0.132554 -0.160767 13.984341 0.081863 -0.114484 0.000303 0.000006 0.000023 0.000000 0.000000 0.000000 0.000000 0.000000 0.000000 -90.586395 0.511784 6.443137 -63.138840 24.725391 -2.149653 -0.291823 -14.704038 48.396160 -15.602559 -9.268522 -6.533353 -12.521925 1.997232 38.986950 0.000006 0.000023 -30.488716 0.000055 -0.000031 -21.265245 -0.001399 -0.000003 -0.001014 -22.895845 -0.068730 -6.599874 -14.964894 -0.017752 0.019840 -15.057077 -0.001880 -0.004821 0.000025 0.000225 -0.000009 -20.726555 -0.003529 -7.856644 -14.037414 -0.013289 0.004597 -13.825943 0.003854 0.020099 -0.000360 -0.000041 -0.000074 -18.409042 0.065558 -9.367727 -12.975601 0.020362 -0.052612 -12.923969 0.002961 -0.012875 0.001246 -0.000002 0.000000 -14.451527 0.237919 -10.578902 -10.989770 0.081970 0.030084 -11.239903 0.020102 -0.019419 0.000467 0.000009 -0.000039 0.000000 0.000000 0.000000 0.000000 0.000000 0.000000 1.964882 -5.094179 11.409721 -0.132584 -0.482279 12.005429 -1.371347 -9.428094 15.377837 -0.605477 1.121670 -18.224930 0.000000 0.000000 0.000000 0.000000 0.000000 0.000000 0.000000 0.000000 0.000000 9.202170 -6.016338 -0.741494 0.360352 0.806799 26.760569 -3.800078 4.736368 15.906622 0.696179 -0.503182 -21.899017 0.000000 0.000000 0.000000 0.000000 0.000000 0.000000 0.000000 0.000000 0.000000 
-0.601228 87.448341 4.261731 -3.138647 1.074084 -12.685713 3.990380 -0.668447 7.117918 2.265989 -0.620628 4.632054 -1.325692 0.494891 4.387147 -1.792224 0.256627 4.218558 0.980395 3.965672 3.310559 -0.694296 3.700546 -4.482826 -1.520111 -0.361057 -18.730583 0.000000 0.000000 0.000000 90.794167 -0.259363 10.981455 61.913887 -36.555038 5.156751 -0.279559 16.061850 34.268196 13.733334 20.542807 -1.858219 12.486882 -1.994842 39.056812 -0.000030 0.000044 -30.433809 0.000022 0.000037 -20.921673 0.000020 0.000003 -0.000045 23.548101 -0.131506 -5.657365 15.421052 -0.079928 0.095422 15.386242 -0.049842 0.058527 -0.000021 0.000051 -0.000025 21.393661 -0.040120 -6.880375 14.598333 -0.026879 0.016184 14.711300 -0.013717 0.018157 0.000018 -0.000022 -0.000012 21.541721 0.038957 -7.348795 14.824574 0.049975 -0.066205 14.735106 0.022859 -0.036207 -0.000034 0.000055 0.000004 20.433451 0.122006 -9.229688 14.301468 0.179301 -0.200433 13.990502 0.113642 -0.145645 0.000192 0.000003 0.000029 0.000000 0.000000 0.000000 0.000000 0.000000 0.000000 -90.665703 0.451716 6.457408 -62.887337 24.065596 -1.553650 -0.327482 -14.883577 48.245586 -15.902321 -9.400950 -7.192528 -12.360970 1.984331 39.060452 0.000001 0.000022 -30.131521 0.000059 -0.000024 -21.001101 -0.001602 -0.000000 -0.001001 -22.127707 -0.061351 -6.500184 -14.470049 -0.032847 -0.000055 -14.542789 -0.016240 -0.024523 0.000029 0.000113 0.000001 -20.093557 0.000255 -7.874069 -13.624107 -0.019607 -0.003295 -13.426023 0.000015 0.012602 -0.000467 -0.000031 -0.000112 -18.058409 0.064959 -9.535950 -12.782028 0.032957 -0.044145 -12.721391 0.009123 -0.008535 0.001446 0.000009 0.000006 -14.479701 0.232857 -10.910574 -11.067467 0.106174 0.039139 -11.333087 0.037951 -0.014314 0.000573 0.000012 -0.000045 0.000000 0.000000 0.000000 0.000000 0.000000 0.000000 2.448473 -5.870074 12.009130 -0.123031 -0.467138 11.692232 -1.590562 -9.951304 15.157516 -0.561153 1.125173 -18.122404 0.000000 0.000000 0.000000 0.000000 0.000000 0.000000 0.000000 0.000000 0.000000 9.816485 -6.610826 -0.975651 0.369038 0.824192 27.197674 -3.978661 4.260564 15.980083 0.757498 -0.472236 -22.028772 0.000000 0.000000 0.000000 0.000000 0.000000 0.000000 0.000000 0.000000 0.000000 
-1.076587 87.352654 4.221226 -3.323713 1.820828 -13.043339 4.067228 -0.733792 7.145763 2.060422 -0.614361 4.591363 -1.132845 0.211009 4.456098 -1.708466 0.210173 4.250836 1.048374 3.412578 3.497538 -0.688683 3.274351 -4.437901 -1.412261 -0.433073 -18.884264 0.000000 0.000000 0.000000 90.906242 -0.306421 11.083432 61.263275 -35.834736 5.180570 -0.288968 16.156963 35.289986 14.107181 20.074894 -2.478210 12.553476 -2.002970 39.023460 -0.000052 0.000046 -30.598625 0.000031 0.000039 -21.030296 0.000017 0.000001 -0.000041 23.719084 -0.128387 -5.764717 15.441257 -0.094151 0.104712 15.411826 -0.063269 0.063851 -0.000031 0.000046 -0.000013 21.640661 -0.041467 -7.003141 14.676570 -0.034377 0.021080 14.775116 -0.017241 0.019528 0.000015 -0.000031 -0.000015 21.857544 0.036586 -7.473101 14.960235 0.059019 -0.077077 14.865973 0.028609 -0.043578 -0.000030 -0.000206 0.000005 20.782978 0.123577 -9.390627 14.480122 0.211867 -0.237737 14.165129 0.133062 -0.174388 0.000081 0.000003 0.000036 0.000000 0.000000 0.000000 0.000000 0.000000 0.000000 -90.578918 0.385513 6.444829 -62.785526 23.202755 -0.948492 -0.392410 -14.981713 48.082272 -15.934124 -9.704218 -7.879389 -12.296241 1.972466 39.101280 -0.000002 0.000017 -29.987490 0.000083 -0.000023 -20.890951 -0.001589 -0.000000 -0.000898 -21.740919 -0.056616 -6.394144 -14.271304 -0.046002 -0.034370 -14.330576 -0.028437 -0.057825 0.000029 0.000165 0.000004 -19.823864 0.001325 -7.866486 -13.478206 -0.025536 -0.016209 -13.281627 -0.003378 0.001046 -0.000600 -0.000030 -0.000144 -17.960449 0.065044 -9.659360 -12.820832 0.044352 -0.030721 -12.747298 0.014466 -0.000578 0.001453 0.000004 0.000007 -14.681411 0.234782 -11.141249 -11.323428 0.124898 0.058837 -11.601107 0.051266 0.002326 0.000678 0.000008 -0.000048 0.000000 0.000000 0.000000 0.000000 0.000000 0.000000 2.843969 -6.647184 12.565746 -0.113487 -0.451924 11.406210 -1.862846 -10.338544 14.936530 -0.521661 1.119915 -18.003950 0.000000 0.000000 0.000000 0.000000 0.000000 0.000000 0.000000 0.000000 0.000000 10.390279 -7.000947 -0.984888 0.377143 0.844531 27.409388 -4.160731 3.772113 16.012012 0.813662 -0.447549 -22.096823 0.000000 0.000000 0.000000 0.000000 0.000000 0.000000 0.000000 0.000000 0.000000 
